<svg width="89" height="20" viewBox="0 0 89 20" fill="none" xmlns="http://www.w3.org/2000/svg">
<path d="M40.1638 16.2626V7.58531H40.1078L36.6145 16.2626H35.2812L31.7852 7.58531H31.7265V16.2626H30.0892V4.47331H32.1692L35.9158 13.868H35.9798L39.7185 4.47331H41.8065V16.2626H40.1638ZM50.8625 16.2626H49.2012V14.8093H49.1612C48.6945 15.8386 47.8358 16.4173 46.5452 16.4173C44.7052 16.4173 43.5825 15.2013 43.5825 13.2306V7.66798H45.3158V12.8893C45.3158 14.196 45.9265 14.8973 47.1212 14.8973C48.3745 14.8973 49.1292 14.0173 49.1292 12.676V7.66798H50.8625V16.2626ZM55.6118 7.51331C57.5798 7.51331 58.8545 8.62265 58.9132 10.2066H57.2838C57.1852 9.37465 56.5852 8.85198 55.6118 8.85198C54.6732 8.85198 54.0465 9.31865 54.0465 10.004C54.0465 10.5426 54.4332 10.9106 55.3478 11.124L56.7212 11.444C58.4465 11.8493 59.1052 12.5373 59.1052 13.7773C59.1052 15.348 57.6652 16.4253 55.6785 16.4253C53.5665 16.4253 52.2972 15.372 52.1372 13.7373H53.8545C54.0109 14.6333 54.6189 15.0804 55.6785 15.0786C56.7185 15.0786 57.3638 14.636 57.3638 13.932C57.3638 13.3773 57.0492 13.052 56.1265 12.8386L54.7532 12.5133C53.1478 12.1373 52.3532 11.3533 52.3532 10.1026C52.3532 8.56665 53.6705 7.51331 55.6118 7.51331ZM60.3052 5.39598C60.3052 5.13076 60.4105 4.87641 60.5981 4.68887C60.7856 4.50134 61.0399 4.39598 61.3052 4.39598C61.5704 4.39598 61.8247 4.50134 62.0123 4.68887C62.1998 4.87641 62.3052 5.13076 62.3052 5.39598C62.3052 5.95065 61.8652 6.40931 61.3105 6.40931C61.0436 6.4065 60.7886 6.2985 60.6008 6.10877C60.4131 5.91904 60.3051 5.6629 60.3052 5.39598ZM60.4465 7.66798H62.1798V16.2626H60.4465V7.66798ZM69.4998 10.6253C69.3238 9.71065 68.6465 8.98265 67.5158 8.98265C66.1772 8.98265 65.2945 10.1186 65.2945 11.964C65.2945 13.852 66.1852 14.948 67.5345 14.948C68.6012 14.948 69.2998 14.3506 69.4998 13.3533H71.1665C70.9798 15.1826 69.5452 16.4253 67.5132 16.4253C65.0998 16.4253 63.5265 14.7426 63.5265 11.964C63.5265 9.23598 65.0998 7.51065 67.4998 7.51065C69.6732 7.51065 70.9985 8.93465 71.1505 10.6253H69.4998ZM24.7878 5.62265C24.3398 6.15865 23.6278 6.58265 22.9158 6.52131C22.8225 5.79598 23.1798 5.02531 23.5825 4.55331C24.0491 3.99662 24.7155 3.64522 25.4385 3.57465C25.5158 4.33198 25.2225 5.06798 24.7878 5.62265ZM25.4278 6.66531C25.8305 6.69731 26.9878 6.82531 27.7292 7.93731C27.6678 7.98531 26.3558 8.75598 26.3692 10.3746C26.3878 12.308 28.0385 12.9506 28.0518 12.9693C28.0385 13.0146 27.7905 13.8786 27.1905 14.7746C26.6652 15.5613 26.1238 16.332 25.2598 16.348C24.4278 16.3613 24.1478 15.844 23.1932 15.844C22.2385 15.844 21.9265 16.332 21.1398 16.3613C20.3078 16.3933 19.6732 15.5293 19.1505 14.7426C18.0705 13.156 17.2518 10.2626 18.3638 8.31598C18.9025 7.34265 19.8918 6.72931 20.9558 6.71331C21.7745 6.69731 22.5292 7.26265 23.0225 7.26265C23.5158 7.26265 24.3932 6.60398 25.4278 6.66531Z" fill="url(#paint0_linear_363_29)"/>
<defs>
<linearGradient id="paint0_linear_363_29" x1="17.8335" y1="9.99998" x2="71.1665" y2="9.99998" gradientUnits="userSpaceOnUse">
<stop offset="0.191" stop-color="#FF047D"/>
<stop offset="0.851" stop-color="white"/>
</linearGradient>
</defs>
</svg>
