<svg width="24" height="24" viewBox="0 0 24 24" fill="none" xmlns="http://www.w3.org/2000/svg">
<path fill-rule="evenodd" clip-rule="evenodd" d="M14.4849 22.9556C17.9718 25.2203 24.0721 23.5334 23.9994 20.4659C23.9266 17.3985 23.9266 6.4024 23.9266 3.37895C23.9266 0.356286 18.407 -1.16805 14.8734 1.06339C13.6612 1.82879 11.9566 2.88486 10.1635 3.99549C6.72905 6.12347 2.97021 8.45213 1.72647 9.32413C-0.166607 10.6515 -0.83957 13.0408 1.4509 14.4748C2.96622 15.4235 6.65602 17.838 9.98893 20.0192C11.6936 21.1347 13.305 22.1892 14.4849 22.9556ZM18.7126 20.3014C18.716 20.7345 18.263 20.607 17.7859 20.3014L5.49882 12.4947C5.02378 12.1907 5.01979 11.6913 5.49483 11.3829L18.1124 3.34707C18.5874 3.03841 18.7089 3.22873 18.7126 3.66101V20.3014Z" fill="white"/>
</svg>
