<svg width="24" height="24" viewBox="0 0 24 24" fill="none" xmlns="http://www.w3.org/2000/svg">
<path fill-rule="evenodd" clip-rule="evenodd" d="M1.0423 9.44943C-1.21779 5.98685 0.465661 -0.0715859 3.52706 0.000639969C6.58846 0.0728658 17.5631 0.0731726 20.5796 0.0731726C23.5961 0.0731726 25.1821 5.95455 22.9552 9.46406C22.5416 10.1162 22.0389 10.9104 21.4865 11.7838C19.0654 15.6118 15.684 20.9574 14.6055 22.4882C13.2809 24.3685 10.9368 24.6684 9.50599 22.3937C8.561 20.8916 6.1592 17.2392 3.9856 13.9341C2.86766 12.2339 1.81004 10.6258 1.0423 9.44943ZM3.81909 5.25515C3.3869 5.2518 3.2852 5.63304 3.59011 6.10662L11.5716 18.3954C11.8752 18.8668 12.0997 18.8668 12.4077 18.3954L20.137 6.24559C20.4451 5.77383 20.3449 5.38863 19.9135 5.38528L3.81909 5.25515Z" fill="white"/>
</svg>
