<svg width="24" height="24" viewBox="0 0 24 24" fill="none" xmlns="http://www.w3.org/2000/svg">
<path fill-rule="evenodd" clip-rule="evenodd" d="M8.91063 22.9682C5.44155 25.2257 -0.0716562 23.5053 0.000705173 20.4479C0.0730666 17.3903 0.0727613 6.42899 0.0727613 3.41621C0.0727613 0.403431 5.66016 -1.18065 9.17656 1.0435C12.6924 3.26784 20.552 8.61357 22.4358 9.93659C24.319 11.2596 24.7144 12.7135 22.4358 14.1428C20.9535 15.0725 17.1443 17.572 13.7079 19.8269C11.8616 21.0384 10.1231 22.1794 8.91063 22.9682ZM5.13043 19.972C5.12676 20.4042 5.51086 20.5046 5.98777 20.1985L17.9818 12.5052C18.2113 12.3581 18.3409 12.1592 18.3427 11.9515C18.3444 11.7438 18.218 11.544 17.9909 11.3953L6.12181 3.67356C5.65161 3.36786 5.26446 3.46729 5.2608 3.89816L5.13043 19.972Z" fill="white"/>
</svg>
