<svg width="56" height="57" viewBox="0 0 56 57" fill="none" xmlns="http://www.w3.org/2000/svg">
<path d="M28 56.5C43.464 56.5 56 43.964 56 28.5C56 13.036 43.464 0.5 28 0.5C12.536 0.5 0 13.036 0 28.5C0 43.964 12.536 56.5 28 56.5Z" fill="white"/>
<path d="M32.6375 0.8955C31.1053 0.635193 29.5541 0.502903 28 0.5C12.53 0.5 0 13.03 0 28.5C0 34.4395 1.86725 39.9275 5.005 44.4793C6.93 41.6512 11.3697 39.7 16.5165 39.7C20.0515 39.7 23.2487 40.6328 25.5395 42.1325L32.6375 0.8955ZM47.516 8.44675C52.3512 19.1392 48.1092 24.8512 48.1092 24.8512C44.828 14.9812 35.3255 13.5393 35.3255 13.5393C35.3255 13.5393 29.0745 47.2233 29.0745 47.6468C29.0745 51.2955 25.2 54.379 19.9395 55.3117C22.554 56.0987 25.2696 56.499 28 56.5C43.47 56.5 56 43.97 56 28.5C56 20.6372 52.7467 13.5375 47.516 8.44675Z" fill="#AF7000"/>
</svg>
