<svg width="75" height="26" viewBox="0 0 75 26" fill="none" xmlns="http://www.w3.org/2000/svg">
<g clip-path="url(#clip0_357_19)">
<path d="M15.7904 3C10.2915 3 5.8335 7.45787 5.8335 12.9567C5.8335 18.4559 10.2915 22.9134 15.7904 22.9134C21.2899 22.9134 25.7474 18.4559 25.7474 12.9567C25.7474 7.45825 21.29 3 15.7904 3ZM20.3566 17.3605C20.3141 17.4301 20.2583 17.4907 20.1924 17.5387C20.1265 17.5868 20.0517 17.6213 19.9724 17.6404C19.8931 17.6595 19.8108 17.6628 19.7303 17.6501C19.6497 17.6374 19.5724 17.6089 19.5029 17.5662C17.1651 16.1383 14.2221 15.8149 10.7562 16.6067C10.5958 16.6432 10.4274 16.6145 10.288 16.5269C10.1487 16.4393 10.0499 16.3 10.0132 16.1395C9.99503 16.0601 9.99265 15.9778 10.0063 15.8974C10.0199 15.8171 10.0492 15.7402 10.0925 15.6712C10.1359 15.6021 10.1924 15.5423 10.2589 15.4952C10.3254 15.448 10.4005 15.4145 10.48 15.3964C14.2729 14.5297 17.5262 14.9029 20.1509 16.5069C20.2205 16.5494 20.281 16.6052 20.329 16.6712C20.377 16.7371 20.4115 16.8118 20.4306 16.8911C20.4497 16.9704 20.453 17.0527 20.4403 17.1333C20.4276 17.2138 20.3992 17.291 20.3566 17.3605ZM21.5752 14.6495C21.3504 15.0147 20.8725 15.1301 20.5074 14.9054C17.8311 13.2604 13.7512 12.7839 10.5856 13.7449C10.3886 13.8045 10.1759 13.7835 9.99431 13.6865C9.8127 13.5896 9.67696 13.4245 9.61687 13.2276C9.55747 13.0306 9.5786 12.8181 9.67563 12.6366C9.77265 12.4551 9.93766 12.3195 10.1345 12.2595C13.7506 11.1622 18.246 11.6937 21.3195 13.5824C21.6845 13.8071 21.8 14.285 21.5752 14.6495ZM21.6796 11.8265C18.471 9.92025 13.1762 9.745 10.1124 10.675C9.62037 10.8243 9.10012 10.5465 8.95112 10.0545C8.87944 9.81814 8.90455 9.56299 9.02093 9.34514C9.13731 9.12729 9.33543 8.96457 9.57175 8.89275C13.0889 7.825 18.9357 8.03125 22.6304 10.2246C22.7357 10.2869 22.8277 10.3694 22.9011 10.4672C22.9744 10.5651 23.0278 10.6765 23.0581 10.7951C23.0883 10.9136 23.0949 11.037 23.0774 11.1581C23.0599 11.2792 23.0187 11.3956 22.9561 11.5007C22.6946 11.9432 22.1207 12.0892 21.6796 11.8265ZM32.9226 12.1917C31.2034 11.7817 30.8979 11.4941 30.8979 10.8895C30.8979 10.3183 31.4352 9.93388 32.2354 9.93388C33.0106 9.93388 33.7787 10.2259 34.5849 10.8267C34.6086 10.8449 34.6395 10.8521 34.6692 10.8474C34.6842 10.8452 34.6985 10.8399 34.7114 10.8321C34.7243 10.8242 34.7355 10.8138 34.7442 10.8015L35.5836 9.61825C35.6002 9.5948 35.6072 9.5659 35.6033 9.53745C35.5993 9.509 35.5846 9.48314 35.5622 9.46513C34.6027 8.6955 33.5231 8.32137 32.2604 8.32137C30.4044 8.32137 29.1072 9.43525 29.1072 11.0291C29.1072 12.7383 30.226 13.3435 32.1594 13.8106C33.8037 14.1895 34.0819 14.5069 34.0819 15.0744C34.0819 15.7034 33.5206 16.0945 32.6171 16.0945C31.6136 16.0945 30.7944 15.7557 29.8789 14.9637C29.8561 14.9445 29.8267 14.9347 29.7969 14.9365C29.782 14.9376 29.7675 14.9416 29.7543 14.9483C29.741 14.955 29.7292 14.9643 29.7195 14.9756L28.7779 16.0956C28.759 16.1181 28.7495 16.147 28.7515 16.1763C28.7535 16.2056 28.7668 16.233 28.7886 16.2526C29.8539 17.2039 31.1641 17.7056 32.579 17.7056C34.579 17.7056 35.8714 16.6129 35.8714 14.921C35.8749 13.4934 35.0201 12.7027 32.9262 12.1934L32.9226 12.1917ZM40.3966 10.4963C39.5299 10.4963 38.8189 10.8378 38.2315 11.5375V10.75C38.2315 10.6877 38.1815 10.6371 38.1197 10.6371H36.58C36.5502 10.6373 36.5218 10.6493 36.5008 10.6704C36.4799 10.6916 36.4682 10.7201 36.4682 10.7499V19.501C36.4682 19.5627 36.5182 19.6139 36.58 19.6139H38.1197C38.1495 19.6137 38.178 19.6017 38.1989 19.5805C38.2199 19.5594 38.2316 19.5308 38.2315 19.501V16.7389C38.8189 17.3964 39.5299 17.7186 40.3965 17.7186C42.0077 17.7186 43.639 16.4786 43.639 14.1079C43.6414 11.7366 42.01 10.4961 40.3977 10.4961L40.3966 10.4963ZM41.8484 14.1079C41.8484 15.3145 41.1052 16.1575 40.0399 16.1575C38.9876 16.1575 38.1934 15.2765 38.1934 14.1079C38.1934 12.9391 38.9876 12.0583 40.0399 12.0583C41.0874 12.0583 41.8484 12.92 41.8484 14.1079ZM47.8182 10.4961C45.7435 10.4961 44.1181 12.0936 44.1181 14.1336C44.1181 16.1515 45.7327 17.7316 47.7932 17.7316C49.8751 17.7316 51.5052 16.1396 51.5052 14.1077C51.5052 12.0828 49.8859 10.4961 47.8182 10.4961ZM47.8182 16.1692C46.7149 16.1692 45.8826 15.2823 45.8826 14.1071C45.8826 12.9266 46.6864 12.0699 47.7932 12.0699C48.9037 12.0699 49.7407 12.9565 49.7407 14.1329C49.7407 15.3133 48.9322 16.1692 47.8182 16.1692ZM55.9354 10.637H54.2411V8.905C54.2411 8.84288 54.1911 8.79225 54.1294 8.79225H52.5897C52.5598 8.79232 52.5312 8.80421 52.51 8.82533C52.4888 8.84645 52.4769 8.87509 52.4767 8.905V10.6369H51.7372C51.7075 10.6371 51.679 10.649 51.6581 10.6702C51.6371 10.6913 51.6254 10.7199 51.6255 10.7496V12.0726C51.6254 12.1024 51.6371 12.131 51.658 12.1522C51.679 12.1733 51.7075 12.1853 51.7372 12.1855H52.4767V15.6093C52.4767 16.992 53.1652 17.6935 54.5242 17.6935C55.0759 17.6935 55.5336 17.5793 55.9652 17.3344C55.9827 17.3248 55.9972 17.3107 56.0073 17.2935C56.0173 17.2764 56.0226 17.2568 56.0224 17.2369V15.9765C56.0222 15.9574 56.0173 15.9387 56.0079 15.9221C55.9985 15.9055 55.9851 15.8915 55.9689 15.8815C55.9527 15.8711 55.934 15.8651 55.9148 15.8643C55.8955 15.8634 55.8764 15.8677 55.8594 15.8766C55.5634 16.0254 55.2769 16.0942 54.9557 16.0942C54.4624 16.0942 54.2412 15.8695 54.2412 15.3678V12.1862H55.9355C55.9653 12.1861 55.9937 12.1741 56.0147 12.1529C56.0356 12.1317 56.0473 12.1031 56.0472 12.0734V10.7504C56.0478 10.7356 56.0453 10.7209 56.0399 10.7071C56.0346 10.6934 56.0265 10.6808 56.0162 10.6703C56.0058 10.6597 55.9935 10.6514 55.9798 10.6457C55.9662 10.6401 55.9515 10.6373 55.9367 10.6375L55.9354 10.637ZM61.8375 10.6438V10.431C61.8375 9.80525 62.0776 9.52625 62.615 9.52625C62.9362 9.52625 63.1941 9.59 63.4831 9.68625C63.5 9.69194 63.5181 9.69349 63.5357 9.69078C63.5534 9.68807 63.5701 9.68118 63.5845 9.67068C63.599 9.66019 63.6107 9.64639 63.6187 9.63044C63.6267 9.61449 63.6308 9.59685 63.6306 9.579L63.6305 8.28188C63.6308 8.25764 63.6232 8.23396 63.6088 8.21444C63.5945 8.19493 63.5741 8.18064 63.5509 8.17375C63.2465 8.083 62.8565 7.99 62.2715 7.99C60.8506 7.99 60.098 8.79063 60.098 10.3045V10.6302H59.3585C59.3286 10.6303 59.2999 10.6422 59.2788 10.6633C59.2576 10.6845 59.2456 10.7131 59.2455 10.743V12.0728C59.2455 12.1349 59.2967 12.1856 59.3585 12.1856H60.098V17.4653C60.098 17.5282 60.1492 17.5782 60.211 17.5782H61.7495C61.8125 17.5782 61.8625 17.5282 61.8625 17.4653V12.1859H63.3L65.502 17.4651C65.2522 18.0192 65.0061 18.1298 64.6707 18.1298C64.3997 18.1298 64.1132 18.049 63.822 17.8885C63.7944 17.8745 63.7625 17.8715 63.7327 17.8801C63.7181 17.8851 63.7046 17.893 63.6931 17.9035C63.6816 17.9139 63.6725 17.9266 63.6661 17.9408L63.1442 19.0858C63.1322 19.1118 63.1306 19.1414 63.1396 19.1685C63.1487 19.1957 63.1678 19.2184 63.193 19.232C63.7375 19.5269 64.2285 19.6529 64.8361 19.6529C65.9727 19.6529 66.6017 19.1226 67.1546 17.6982L69.8251 10.7977C69.8321 10.7807 69.8346 10.7622 69.8326 10.7439C69.8305 10.7256 69.8238 10.7081 69.8132 10.693C69.8032 10.6779 69.7896 10.6655 69.7736 10.657C69.7576 10.6485 69.7397 10.644 69.7216 10.644H68.1189C68.0954 10.6439 68.0724 10.6511 68.0532 10.6646C68.034 10.6782 68.0196 10.6974 68.0119 10.7196L66.3699 15.4082L64.5721 10.7165C64.564 10.6953 64.5497 10.677 64.531 10.664C64.5124 10.6511 64.4902 10.6441 64.4675 10.644L61.8375 10.6438ZM58.4156 10.637H56.8759C56.846 10.6371 56.8174 10.649 56.7962 10.6702C56.7751 10.6913 56.7632 10.7199 56.763 10.7498V17.4653C56.763 17.5282 56.8141 17.5782 56.8759 17.5782H58.4156C58.4775 17.5782 58.5286 17.5282 58.5286 17.4653V10.7502C58.5287 10.7354 58.5258 10.7207 58.5201 10.707C58.5145 10.6932 58.5061 10.6808 58.4956 10.6703C58.4851 10.6598 58.4726 10.6515 58.4589 10.6458C58.4452 10.6402 58.4305 10.6369 58.4156 10.637ZM57.6546 7.579C57.0446 7.579 56.5501 8.07275 56.5501 8.6825C56.5501 8.82755 56.5787 8.97118 56.6342 9.10519C56.6897 9.2392 56.771 9.36097 56.8736 9.46354C56.9762 9.5661 57.0979 9.64746 57.2319 9.70296C57.3659 9.75846 57.5096 9.78702 57.6546 9.787C58.2646 9.787 58.758 9.29275 58.758 8.6825C58.7579 8.38988 58.6417 8.10925 58.4348 7.90233C58.2279 7.6954 57.9472 7.5791 57.6546 7.579Z" fill="#1ED760"/>
</g>
<defs>
<clipPath id="clip0_357_19">
<rect width="64" height="20" fill="white" transform="translate(5.8335 3)"/>
</clipPath>
</defs>
</svg>
