<svg width="24" height="29" viewBox="0 0 24 29" fill="none" xmlns="http://www.w3.org/2000/svg">
<g clip-path="url(#clip0_241_342)">
<path d="M17.7838 10.6972C19.5342 11.9477 21.6785 12.6836 23.9944 12.6836V8.22948C23.556 8.22965 23.1189 8.18392 22.6901 8.09303V11.599C20.3744 11.599 18.2304 10.8633 16.4797 9.61284V18.7024C16.4797 23.2496 12.7916 26.9354 8.24247 26.9354C6.54508 26.9354 4.96736 26.4225 3.65681 25.5429C5.15262 27.0716 7.23863 28.0199 9.54636 28.0199C14.0958 28.0199 17.784 24.334 17.784 19.7867V10.6972H17.7838ZM19.3929 6.20354C18.4983 5.22678 17.9109 3.9645 17.7838 2.56895V1.99609H16.5479C16.859 3.76976 17.9203 5.28507 19.3929 6.20354ZM6.53411 22.0536C6.03429 21.3988 5.76413 20.5975 5.7654 19.7737C5.7654 17.694 7.45229 16.0078 9.53352 16.0078C9.92132 16.0076 10.3068 16.0671 10.6765 16.1842V11.6305C10.2445 11.5714 9.80857 11.5462 9.37281 11.5555V15.0998C9.00295 14.9826 8.61723 14.9231 8.22925 14.9234C6.14812 14.9234 4.46132 16.6095 4.46132 18.6894C4.46132 20.1601 5.30444 21.4334 6.53411 22.0536Z" fill="#FF004F"/>
<path d="M16.4797 9.61274C18.2305 10.8632 20.3743 11.599 22.6901 11.599V8.09294C21.3974 7.81771 20.2531 7.14261 19.3928 6.20354C17.9201 5.28498 16.859 3.76967 16.5479 1.99609H13.3015V19.7865C13.2941 21.8605 11.6101 23.5398 9.53334 23.5398C8.30966 23.5398 7.22242 22.9568 6.53393 22.0535C5.30444 21.4334 4.46123 20.16 4.46123 18.6895C4.46123 16.6098 6.14803 14.9235 8.22916 14.9235C8.6279 14.9235 9.01221 14.9856 9.37272 15.0999V11.5556C4.90345 11.6479 1.30916 15.2977 1.30916 19.7866C1.30916 22.0274 2.20419 24.0588 3.6569 25.5431C4.96745 26.4225 6.54508 26.9356 8.24256 26.9356C12.7918 26.9356 16.4798 23.2495 16.4798 18.7024L16.4797 9.61274Z" fill="white"/>
<path d="M22.6901 8.09295V7.14515C21.5244 7.14684 20.3818 6.82058 19.3928 6.20364C20.2682 7.16156 21.421 7.82215 22.6901 8.09314M16.5478 1.9961C16.5182 1.82663 16.4954 1.65603 16.4796 1.48472V0.911865H11.997V18.7024C11.9899 20.7763 10.3059 22.4556 8.22907 22.4556C7.64031 22.4565 7.05959 22.3188 6.53383 22.0538C7.22233 22.9569 8.30957 23.5398 9.53325 23.5398C11.6099 23.5398 13.2941 21.8607 13.3014 19.7867V1.9962L16.5478 1.9961ZM9.37291 11.5556V10.5464C8.99833 10.4953 8.62071 10.4696 8.24266 10.4697C3.69298 10.4697 0.00498199 14.1558 0.00498199 18.7024C0.00498199 21.553 1.45441 24.0653 3.657 25.543C2.20429 24.0588 1.30925 22.0273 1.30925 19.7866C1.30925 15.2978 4.90345 11.6479 9.37291 11.5556Z" fill="#00F2EA"/>
</g>
<defs>
<clipPath id="clip0_241_342">
<rect width="24" height="27.1762" fill="white" transform="translate(0 0.911865)"/>
</clipPath>
</defs>
</svg>
