<svg width="24" height="17" viewBox="0 0 24 17" fill="none" xmlns="http://www.w3.org/2000/svg">
<g clip-path="url(#clip0_241_334)">
<path d="M23.4676 2.69573C23.33 2.1871 23.0615 1.7234 22.6889 1.3508C22.3163 0.978198 21.8526 0.709703 21.344 0.572047C19.4819 0.064209 11.9877 0.064209 11.9877 0.064209C11.9877 0.064209 4.49312 0.0795809 2.63104 0.587419C2.12241 0.725083 1.65871 0.993592 1.28613 1.36621C0.913547 1.73882 0.645078 2.20254 0.50746 2.71119C-0.0557741 6.01973 -0.274263 11.0612 0.522925 14.2374C0.660558 14.746 0.929033 15.2097 1.30162 15.5823C1.6742 15.9549 2.13789 16.2234 2.64651 16.3611C4.50858 16.8689 12.003 16.8689 12.003 16.8689C12.003 16.8689 19.4973 16.8689 21.3593 16.3611C21.8679 16.2234 22.3316 15.9549 22.7042 15.5823C23.0768 15.2097 23.3453 14.746 23.483 14.2374C24.077 10.9242 24.2601 5.88579 23.4676 2.69573Z" fill="#FF0000"/>
<path d="M9.60243 12.0674L15.8195 8.46646L9.60243 4.86548V12.0674Z" fill="white"/>
</g>
<defs>
<clipPath id="clip0_241_334">
<rect width="24" height="16.8717" fill="white" transform="translate(0 0.064209)"/>
</clipPath>
</defs>
</svg>
