<svg width="77" height="31" viewBox="0 0 77 31" fill="none" xmlns="http://www.w3.org/2000/svg">
<g clip-path="url(#clip0_363_23)">
<path d="M26.8197 10.2413C26.7025 9.80801 26.4738 9.41305 26.1565 9.0957C25.8391 8.77835 25.4441 8.54969 25.0109 8.4325C23.4247 8 17.0417 8 17.0417 8C17.0417 8 10.6585 8.01313 9.07261 8.44563C8.63938 8.56283 8.24443 8.7915 7.92708 9.10885C7.60973 9.4262 7.38107 9.82115 7.26386 10.2544C6.78411 13.0725 6.59798 17.3664 7.27698 20.0716C7.39419 20.5048 7.62286 20.8998 7.94021 21.2172C8.25755 21.5345 8.65251 21.7632 9.08573 21.8804C10.6717 22.3129 17.0549 22.3129 17.0549 22.3129C17.0549 22.3129 23.438 22.3129 25.024 21.8804C25.4572 21.7632 25.8522 21.5345 26.1695 21.2172C26.4869 20.8998 26.7155 20.5048 26.8327 20.0716C27.3386 17.2496 27.4946 12.9584 26.8196 10.2414" fill="#FF0000"/>
<path d="M15.0101 18.2235L20.3054 15.1565L15.0101 12.0894V18.2235Z" fill="white"/>
<path d="M68.2381 12.155C68.9328 12.155 69.457 12.286 69.824 12.535C70.191 12.7841 70.4532 13.1773 70.6105 13.7147C70.7678 14.2521 70.8333 14.986 70.8333 15.9297V17.4633H67.4648V17.9351L67.5173 19.2327C67.5565 19.5211 67.6221 19.7308 67.7269 19.8618C67.8319 19.993 68.0021 20.0585 68.225 20.0585C68.5265 20.0585 68.7363 19.9406 68.841 19.7047C68.959 19.4687 69.0114 19.0755 69.0245 18.5381L70.7678 18.643C70.7809 18.7216 70.7809 18.8265 70.7809 18.9575C70.7809 19.7832 70.558 20.3993 70.0993 20.8056C69.6405 21.2118 69.0114 21.4216 68.1856 21.4216C67.1895 21.4216 66.4949 21.1071 66.1016 20.4911C65.7085 19.875 65.4988 18.905 65.4988 17.6075V16.0215C65.5433 13.7933 65.9351 12.1615 68.2381 12.155ZM44.0031 12.3253V18.892C44.0031 19.2852 44.0424 19.5736 44.1341 19.744C44.3203 20.1083 44.8026 20.0152 45.0648 19.8357C45.216 19.7334 45.338 19.5934 45.4186 19.4295V12.3252H47.424V21.2773H45.8511L45.6808 20.1763H45.6415C45.209 21.0021 44.5666 21.4215 43.7148 21.4215C42.4035 21.4182 42.0826 20.4735 42.0063 19.514L42.0013 19.4463C41.9918 19.301 41.9863 19.1555 41.9846 19.0098V12.3253H44.0031ZM54.3446 12.3253V18.892C54.3446 19.2852 54.3839 19.5736 54.4756 19.744C54.6619 20.1083 55.1441 20.0152 55.4063 19.8357C55.5575 19.7334 55.6795 19.5934 55.7601 19.4295V12.3252H57.7655V21.2773H56.1926L56.0223 20.1763H55.983C55.5505 21.0021 54.9081 21.4215 54.0563 21.4215C52.745 21.4182 52.4241 20.4735 52.3478 19.514L52.3428 19.4463C52.3333 19.301 52.3278 19.1555 52.3261 19.0098V12.3253H54.3446ZM38.1835 12.155C38.8389 12.155 39.3763 12.286 39.7695 12.5612C40.1626 12.8365 40.4641 13.256 40.6476 13.8326C40.8311 14.4093 40.9229 15.1826 40.9229 16.1395V17.437C40.9229 18.3938 40.8311 19.1541 40.6476 19.7307C40.4641 20.3076 40.1758 20.727 39.7695 21.0022C39.3633 21.2643 38.8126 21.4085 38.1311 21.4085C37.4233 21.4216 36.8728 21.2775 36.4665 21.0153C36.0603 20.7401 35.7718 20.3206 35.6015 19.744C35.431 19.1672 35.3524 18.407 35.3524 17.4502V16.1525C35.3524 15.1956 35.4441 14.4092 35.6408 13.8325C35.8374 13.2427 36.1388 12.8232 36.5583 12.5612C36.9776 12.299 37.515 12.1548 38.1835 12.1548M60.9113 8.5636V13.2821H60.9244C61.1079 12.9413 61.3438 12.6661 61.6715 12.4563C61.9776 12.2507 62.3381 12.1411 62.7069 12.1418C63.1919 12.1418 63.5589 12.2728 63.8341 12.5218C64.1094 12.7841 64.306 13.1903 64.4239 13.754C64.5383 14.3 64.6033 15.0551 64.6073 16.0073L64.6074 16.1002V17.5157C64.6074 18.8395 64.437 19.8226 64.1224 20.4517C63.7949 21.0808 63.2968 21.3955 62.6151 21.3955C62.2351 21.3955 61.8943 21.3037 61.5798 21.1333C61.3016 20.9711 61.071 20.7387 60.911 20.4593L60.885 20.4123H60.8458L60.636 21.2643H58.9714V8.56372L60.9113 8.5636ZM52.8896 9.02235V10.6475H50.8974V21.2773H48.9314V10.6476H46.926V9.02247L52.8896 9.02235ZM31.276 9.02235L31.2773 9.02735C31.2964 9.11247 31.5614 10.2906 31.8529 11.6632L31.8759 11.772L31.9106 11.9363L31.9339 12.0467L31.9455 12.1021L31.9688 12.2131L31.9804 12.2687L32.0035 12.3801L32.0373 12.543C32.2341 13.4935 32.422 14.4467 32.5344 15.1302H32.5869C32.6945 14.5171 32.8509 13.7325 33.0176 12.9313L33.0614 12.7221C33.0833 12.6173 33.1054 12.5126 33.1276 12.4081L33.1619 12.246C33.3883 11.1843 33.6215 10.1241 33.8615 9.06547L33.8653 9.0486L33.8713 9.02235H35.8766L33.5566 17.293V21.2643H31.5775V17.306H31.5644L29.2706 9.02222L31.276 9.02235ZM38.1441 13.5442C37.8689 13.5442 37.6854 13.6885 37.5675 13.99C37.4496 14.2915 37.3971 14.7501 37.3971 15.3925V18.1842C37.3971 18.8396 37.4495 19.3245 37.5544 19.613C37.6593 19.9013 37.8559 20.0455 38.1441 20.0455C38.4194 20.0455 38.616 19.9013 38.734 19.613C38.852 19.3245 38.9044 18.8396 38.9044 18.1842V15.3923C38.9044 14.7501 38.8519 14.2782 38.734 13.9898C38.616 13.6885 38.4194 13.5442 38.1441 13.5442ZM61.2651 13.8065C61.1054 13.954 60.9918 14.1358 60.9241 14.3632L60.9113 14.4093V19.4948C61.0738 19.7701 61.3045 19.9536 61.7108 19.9667C61.9204 19.9667 62.0908 19.8881 62.222 19.7308C62.353 19.5736 62.4447 19.3114 62.4971 18.9443C62.5475 18.5921 62.5738 18.1069 62.5758 17.4888V16.2443C62.5758 15.5366 62.5495 14.9992 62.5103 14.6191C62.4578 14.239 62.3924 13.9637 62.2744 13.8065C62.0463 13.4787 61.5535 13.4827 61.2651 13.8065ZM68.1989 13.505C67.976 13.5181 67.8186 13.5836 67.7269 13.7016C67.6221 13.8326 67.5565 14.0292 67.5173 14.3176C67.4786 14.6001 67.4654 15.5876 67.4648 15.6271V16.2706H68.9328V15.7031V15.714C68.9319 15.9123 68.9278 15.5988 68.9188 15.214L68.9175 15.1622C68.9093 14.824 68.8973 14.4468 68.8804 14.3176C68.841 14.0161 68.7754 13.8063 68.6706 13.6885C68.5658 13.5705 68.4085 13.505 68.1988 13.505" fill="white"/>
</g>
<defs>
<clipPath id="clip0_363_23">
<rect width="64" height="14.5" fill="white" transform="translate(6.8335 8)"/>
</clipPath>
</defs>
</svg>
